<?xml version="1.0" encoding="UTF-8" standalone="no"?>
<!DOCTYPE svg PUBLIC "-//W3C//DTD SVG 1.1//EN"
 "http://www.w3.org/Graphics/SVG/1.1/DTD/svg11.dtd">
<!-- Generated by graphviz version 2.38.0 (20140413.2041)
 -->
<!-- Title: controllers_diagram Pages: 1 -->
<svg width="648pt" height="651pt"
 viewBox="0.00 0.00 648.07 651.00" xmlns="http://www.w3.org/2000/svg" xmlns:xlink="http://www.w3.org/1999/xlink">
<g id="graph0" class="graph" transform="scale(1 1) rotate(0) translate(212.54 362.5)">
<title>controllers_diagram</title>
<polygon fill="white" stroke="none" points="-212.54,288.5 -212.54,-362.5 435.526,-362.5 435.526,288.5 -212.54,288.5"/>
<!-- _diagram_info -->
<g id="node1" class="node"><title>_diagram_info</title>
<text text-anchor="start" x="-105.688" y="-344.1" font-family="Times,serif" font-size="13.00">Controllers diagram</text>
<text text-anchor="start" x="-105.688" y="-331.1" font-family="Times,serif" font-size="13.00">Date: Jul 01 2015 &#45; 15:33</text>
<text text-anchor="start" x="-105.688" y="-318.1" font-family="Times,serif" font-size="13.00">Migration version: 20150630182431</text>
<text text-anchor="start" x="-105.688" y="-305.1" font-family="Times,serif" font-size="13.00">Generated by RailRoady 1.3.0</text>
<text text-anchor="start" x="-105.688" y="-292.1" font-family="Times,serif" font-size="13.00">http://railroady.prestonlee.com</text>
</g>
<!-- ApplicationController -->
<g id="node2" class="node"><title>ApplicationController</title>
<path fill="none" stroke="black" d="M-120.657,39.4912C-120.657,39.4912 -5.01516,39.4912 -5.01516,39.4912 0.984843,39.4912 6.98484,33.4912 6.98484,27.4912 6.98484,27.4912 6.98484,-40.5088 6.98484,-40.5088 6.98484,-46.5088 0.984843,-52.5088 -5.01516,-52.5088 -5.01516,-52.5088 -120.657,-52.5088 -120.657,-52.5088 -126.657,-52.5088 -132.657,-46.5088 -132.657,-40.5088 -132.657,-40.5088 -132.657,27.4912 -132.657,27.4912 -132.657,33.4912 -126.657,39.4912 -120.657,39.4912"/>
<text text-anchor="middle" x="-62.836" y="-37.3088" font-family="Times,serif" font-size="14.00">ApplicationController</text>
<polyline fill="none" stroke="black" points="-132.657,-30.5088 6.98484,-30.5088 "/>
<polyline fill="none" stroke="black" points="-132.657,-6.50878 6.98484,-6.50878 "/>
<polyline fill="none" stroke="black" points="-132.657,17.4912 6.98484,17.4912 "/>
<text text-anchor="start" x="-124.657" y="32.6912" font-family="Times,serif" font-size="14.00">_layout</text>
</g>
<!-- UsersController -->
<g id="node3" class="node"><title>UsersController</title>
<path fill="none" stroke="black" d="M29.0605,113.321C29.0605,113.321 110.488,113.321 110.488,113.321 116.488,113.321 122.488,107.321 122.488,101.321 122.488,101.321 122.488,-90.6792 122.488,-90.6792 122.488,-96.6792 116.488,-102.679 110.488,-102.679 110.488,-102.679 29.0605,-102.679 29.0605,-102.679 23.0605,-102.679 17.0605,-96.6792 17.0605,-90.6792 17.0605,-90.6792 17.0605,101.321 17.0605,101.321 17.0605,107.321 23.0605,113.321 29.0605,113.321"/>
<text text-anchor="middle" x="69.7744" y="-87.4792" font-family="Times,serif" font-size="14.00">UsersController</text>
<polyline fill="none" stroke="black" points="17.0605,-80.6792 122.488,-80.6792 "/>
<text text-anchor="start" x="25.0605" y="-65.4792" font-family="Times,serif" font-size="14.00">create</text>
<text text-anchor="start" x="25.0605" y="-51.4792" font-family="Times,serif" font-size="14.00">destroy</text>
<text text-anchor="start" x="25.0605" y="-37.4792" font-family="Times,serif" font-size="14.00">edit</text>
<text text-anchor="start" x="25.0605" y="-23.4792" font-family="Times,serif" font-size="14.00">index</text>
<text text-anchor="start" x="25.0605" y="-9.4792" font-family="Times,serif" font-size="14.00">login</text>
<text text-anchor="start" x="25.0605" y="4.5208" font-family="Times,serif" font-size="14.00">new</text>
<text text-anchor="start" x="25.0605" y="18.5208" font-family="Times,serif" font-size="14.00">show</text>
<text text-anchor="start" x="25.0605" y="32.5208" font-family="Times,serif" font-size="14.00">update</text>
<polyline fill="none" stroke="black" points="17.0605,39.3208 122.488,39.3208 "/>
<polyline fill="none" stroke="black" points="17.0605,63.3208 122.488,63.3208 "/>
<text text-anchor="start" x="25.0605" y="78.5208" font-family="Times,serif" font-size="14.00">_layout</text>
<text text-anchor="start" x="25.0605" y="92.5208" font-family="Times,serif" font-size="14.00">set_user</text>
<text text-anchor="start" x="25.0605" y="106.521" font-family="Times,serif" font-size="14.00">user_params</text>
</g>
<!-- ApplicationController&#45;&gt;UsersController -->
<g id="edge1" class="edge"><title>ApplicationController&#45;&gt;UsersController</title>
<path fill="none" stroke="black" d="M7.35231,-0.247595C10.5829,0.040592 13.8012,0.327679 16.9763,0.610916"/>
</g>
<!-- ResqueWeb::ApplicationController -->
<g id="node4" class="node"><title>ResqueWeb::ApplicationController</title>
<path fill="none" stroke="black" d="M164.026,151C164.026,151 353.974,151 353.974,151 359.974,151 365.974,145 365.974,139 365.974,139 365.974,59 365.974,59 365.974,53 359.974,47 353.974,47 353.974,47 164.026,47 164.026,47 158.026,47 152.026,53 152.026,59 152.026,59 152.026,139 152.026,139 152.026,145 158.026,151 164.026,151"/>
<text text-anchor="middle" x="259" y="62.2" font-family="Times,serif" font-size="14.00">ResqueWeb::ApplicationController</text>
<polyline fill="none" stroke="black" points="152.026,69 365.974,69 "/>
<text text-anchor="start" x="160.026" y="84.2" font-family="Times,serif" font-size="14.00">set_subtabs</text>
<polyline fill="none" stroke="black" points="152.026,91 365.974,91 "/>
<polyline fill="none" stroke="black" points="152.026,115 365.974,115 "/>
<text text-anchor="start" x="160.026" y="130.2" font-family="Times,serif" font-size="14.00">_layout</text>
<text text-anchor="start" x="160.026" y="144.2" font-family="Times,serif" font-size="14.00">authorize</text>
</g>
<!-- ResqueWeb::FailuresController -->
<g id="node5" class="node"><title>ResqueWeb::FailuresController</title>
<path fill="none" stroke="black" d="M144.522,-134C144.522,-134 313.478,-134 313.478,-134 319.478,-134 325.478,-140 325.478,-146 325.478,-146 325.478,-296 325.478,-296 325.478,-302 319.478,-308 313.478,-308 313.478,-308 144.522,-308 144.522,-308 138.522,-308 132.522,-302 132.522,-296 132.522,-296 132.522,-146 132.522,-146 132.522,-140 138.522,-134 144.522,-134"/>
<text text-anchor="middle" x="229" y="-292.8" font-family="Times,serif" font-size="14.00">ResqueWeb::FailuresController</text>
<polyline fill="none" stroke="black" points="132.522,-286 325.478,-286 "/>
<text text-anchor="start" x="140.522" y="-270.8" font-family="Times,serif" font-size="14.00">destroy</text>
<text text-anchor="start" x="140.522" y="-256.8" font-family="Times,serif" font-size="14.00">destroy_all</text>
<text text-anchor="start" x="140.522" y="-242.8" font-family="Times,serif" font-size="14.00">index</text>
<text text-anchor="start" x="140.522" y="-228.8" font-family="Times,serif" font-size="14.00">retry</text>
<text text-anchor="start" x="140.522" y="-214.8" font-family="Times,serif" font-size="14.00">retry_all</text>
<polyline fill="none" stroke="black" points="132.522,-208 325.478,-208 "/>
<polyline fill="none" stroke="black" points="132.522,-184 325.478,-184 "/>
<text text-anchor="start" x="140.522" y="-168.8" font-family="Times,serif" font-size="14.00">_layout</text>
<text text-anchor="start" x="140.522" y="-154.8" font-family="Times,serif" font-size="14.00">redirect_params</text>
<text text-anchor="start" x="140.522" y="-140.8" font-family="Times,serif" font-size="14.00">reque_single_job</text>
</g>
<!-- ResqueWeb::OverviewController -->
<g id="node6" class="node"><title>ResqueWeb::OverviewController</title>
<path fill="none" stroke="black" d="M240.474,284C240.474,284 419.526,284 419.526,284 425.526,284 431.526,278 431.526,272 431.526,272 431.526,206 431.526,206 431.526,200 425.526,194 419.526,194 419.526,194 240.474,194 240.474,194 234.474,194 228.474,200 228.474,206 228.474,206 228.474,272 228.474,272 228.474,278 234.474,284 240.474,284"/>
<text text-anchor="middle" x="330" y="209.2" font-family="Times,serif" font-size="14.00">ResqueWeb::OverviewController</text>
<polyline fill="none" stroke="black" points="228.474,216 431.526,216 "/>
<text text-anchor="start" x="236.474" y="231.2" font-family="Times,serif" font-size="14.00">show</text>
<polyline fill="none" stroke="black" points="228.474,238 431.526,238 "/>
<polyline fill="none" stroke="black" points="228.474,262 431.526,262 "/>
<text text-anchor="start" x="236.474" y="277.2" font-family="Times,serif" font-size="14.00">_layout</text>
</g>
<!-- ResqueWeb::QueuesController -->
<g id="node7" class="node"><title>ResqueWeb::QueuesController</title>
<path fill="none" stroke="black" d="M164.081,18C164.081,18 329.919,18 329.919,18 335.919,18 341.919,12 341.919,6 341.919,6 341.919,-88 341.919,-88 341.919,-94 335.919,-100 329.919,-100 329.919,-100 164.081,-100 164.081,-100 158.081,-100 152.081,-94 152.081,-88 152.081,-88 152.081,6 152.081,6 152.081,12 158.081,18 164.081,18"/>
<text text-anchor="middle" x="247" y="-84.8" font-family="Times,serif" font-size="14.00">ResqueWeb::QueuesController</text>
<polyline fill="none" stroke="black" points="152.081,-78 341.919,-78 "/>
<text text-anchor="start" x="160.081" y="-62.8" font-family="Times,serif" font-size="14.00">destroy</text>
<text text-anchor="start" x="160.081" y="-48.8" font-family="Times,serif" font-size="14.00">index</text>
<text text-anchor="start" x="160.081" y="-34.8" font-family="Times,serif" font-size="14.00">show</text>
<polyline fill="none" stroke="black" points="152.081,-28 341.919,-28 "/>
<polyline fill="none" stroke="black" points="152.081,-4 341.919,-4 "/>
<text text-anchor="start" x="160.081" y="11.2" font-family="Times,serif" font-size="14.00">_layout</text>
</g>
<!-- ResqueWeb::StatsController -->
<g id="node8" class="node"><title>ResqueWeb::StatsController</title>
<path fill="none" stroke="black" d="M-196.54,208C-196.54,208 -45.4604,208 -45.4604,208 -39.4604,208 -33.4604,202 -33.4604,196 -33.4604,196 -33.4604,88 -33.4604,88 -33.4604,82 -39.4604,76 -45.4604,76 -45.4604,76 -196.54,76 -196.54,76 -202.54,76 -208.54,82 -208.54,88 -208.54,88 -208.54,196 -208.54,196 -208.54,202 -202.54,208 -196.54,208"/>
<text text-anchor="middle" x="-121" y="91.2" font-family="Times,serif" font-size="14.00">ResqueWeb::StatsController</text>
<polyline fill="none" stroke="black" points="-208.54,98 -33.4604,98 "/>
<text text-anchor="start" x="-200.54" y="113.2" font-family="Times,serif" font-size="14.00">index</text>
<text text-anchor="start" x="-200.54" y="127.2" font-family="Times,serif" font-size="14.00">keys</text>
<text text-anchor="start" x="-200.54" y="141.2" font-family="Times,serif" font-size="14.00">redis</text>
<text text-anchor="start" x="-200.54" y="155.2" font-family="Times,serif" font-size="14.00">resque</text>
<polyline fill="none" stroke="black" points="-208.54,162 -33.4604,162 "/>
<polyline fill="none" stroke="black" points="-208.54,186 -33.4604,186 "/>
<text text-anchor="start" x="-200.54" y="201.2" font-family="Times,serif" font-size="14.00">_layout</text>
</g>
<!-- ResqueWeb::WorkersController -->
<g id="node9" class="node"><title>ResqueWeb::WorkersController</title>
<path fill="none" stroke="black" d="M-83.4688,-134C-83.4688,-134 87.4688,-134 87.4688,-134 93.4688,-134 99.4688,-140 99.4688,-146 99.4688,-146 99.4688,-240 99.4688,-240 99.4688,-246 93.4688,-252 87.4688,-252 87.4688,-252 -83.4688,-252 -83.4688,-252 -89.4688,-252 -95.4688,-246 -95.4688,-240 -95.4688,-240 -95.4688,-146 -95.4688,-146 -95.4688,-140 -89.4688,-134 -83.4688,-134"/>
<text text-anchor="middle" x="2" y="-236.8" font-family="Times,serif" font-size="14.00">ResqueWeb::WorkersController</text>
<polyline fill="none" stroke="black" points="-95.4688,-230 99.4688,-230 "/>
<text text-anchor="start" x="-87.4688" y="-214.8" font-family="Times,serif" font-size="14.00">index</text>
<text text-anchor="start" x="-87.4688" y="-200.8" font-family="Times,serif" font-size="14.00">show</text>
<polyline fill="none" stroke="black" points="-95.4688,-194 99.4688,-194 "/>
<polyline fill="none" stroke="black" points="-95.4688,-170 99.4688,-170 "/>
<text text-anchor="start" x="-87.4688" y="-154.8" font-family="Times,serif" font-size="14.00">_layout</text>
<text text-anchor="start" x="-87.4688" y="-140.8" font-family="Times,serif" font-size="14.00">display_subtabs</text>
</g>
<!-- ResqueWeb::WorkingController -->
<g id="node10" class="node"><title>ResqueWeb::WorkingController</title>
<path fill="none" stroke="black" d="M11.7485,284C11.7485,284 184.251,284 184.251,284 190.251,284 196.251,278 196.251,272 196.251,272 196.251,206 196.251,206 196.251,200 190.251,194 184.251,194 184.251,194 11.7485,194 11.7485,194 5.74854,194 -0.251465,200 -0.251465,206 -0.251465,206 -0.251465,272 -0.251465,272 -0.251465,278 5.74854,284 11.7485,284"/>
<text text-anchor="middle" x="98" y="209.2" font-family="Times,serif" font-size="14.00">ResqueWeb::WorkingController</text>
<polyline fill="none" stroke="black" points="-0.251465,216 196.251,216 "/>
<text text-anchor="start" x="7.74854" y="231.2" font-family="Times,serif" font-size="14.00">index</text>
<polyline fill="none" stroke="black" points="-0.251465,238 196.251,238 "/>
<polyline fill="none" stroke="black" points="-0.251465,262 196.251,262 "/>
<text text-anchor="start" x="7.74854" y="277.2" font-family="Times,serif" font-size="14.00">_layout</text>
</g>
</g>
</svg>
